<svg width="500" height="500" viewBox="0 0 500 500" fill="none" xmlns="http://www.w3.org/2000/svg">
<rect x="24" y="24" width="450" height="450" rx="120" fill="url(#paint0_linear_540_3)"/>
<path d="M224.836 182.859H227.746V192.723C227.746 195.477 225.812 197.195 222.961 197.195C220.402 197.195 218.391 195.848 218.41 193.055H221.34C221.359 194.168 222.043 194.832 223.098 194.832C224.211 194.832 224.836 194.109 224.836 192.723V182.859ZM238.879 182.859H241.828V192.039C241.828 195.145 239.484 197.195 235.969 197.195C232.453 197.195 230.129 195.145 230.129 192.039V182.859H233.059V191.805C233.059 193.426 234.211 194.617 235.969 194.617C237.746 194.617 238.879 193.426 238.879 191.805V182.859ZM244.211 197V182.859H249.758C252.98 182.859 254.816 184.676 254.816 187.469C254.816 189.402 253.928 190.809 252.316 191.492L255.324 197H252.082L249.387 191.98H247.141V197H244.211ZM247.141 189.598H249.211C250.949 189.598 251.789 188.875 251.789 187.469C251.789 186.043 250.949 185.262 249.211 185.262H247.141V189.598ZM256.848 182.859H260.48L264.406 192.449H264.562L268.488 182.859H272.121V197H269.27V187.742H269.152L265.461 196.941H263.508L259.816 187.703H259.699V197H256.848V182.859ZM277.434 182.859V197H274.504V182.859H277.434Z" fill="white"/>
<rect x="167" y="266" width="35" height="35" rx="10" fill="white"/>
<rect x="167" y="311" width="35" height="35" rx="10" fill="white"/>
<rect x="232" y="266" width="35" height="35" rx="10" fill="white"/>
<rect x="232" y="311" width="35" height="35" rx="10" fill="white"/>
<rect x="297" y="266" width="35" height="35" rx="10" fill="white"/>
<rect x="297" y="311" width="35" height="35" rx="10" fill="white"/>
<path d="M354 129H324V114C324 110.022 322.42 106.206 319.607 103.393C316.794 100.58 312.978 99 309 99C305.022 99 301.206 100.58 298.393 103.393C295.58 106.206 294 110.022 294 114V129H204V114C204 110.022 202.42 106.206 199.607 103.393C196.794 100.58 192.978 99 189 99C185.022 99 181.206 100.58 178.393 103.393C175.58 106.206 174 110.022 174 114V129H144C132.065 129 120.619 133.741 112.18 142.18C103.741 150.619 99 162.065 99 174V354C99 365.935 103.741 377.381 112.18 385.82C120.619 394.259 132.065 399 144 399H354C365.935 399 377.381 394.259 385.82 385.82C394.259 377.381 399 365.935 399 354V174C399 162.065 394.259 150.619 385.82 142.18C377.381 133.741 365.935 129 354 129ZM369 354C369 357.978 367.42 361.794 364.607 364.607C361.794 367.42 357.978 369 354 369H144C140.022 369 136.206 367.42 133.393 364.607C130.58 361.794 129 357.978 129 354V249H369V354ZM369 219H129V174C129 170.022 130.58 166.206 133.393 163.393C136.206 160.58 140.022 159 144 159H174V174C174 177.978 175.58 181.794 178.393 184.607C181.206 187.42 185.022 189 189 189C192.978 189 196.794 187.42 199.607 184.607C202.42 181.794 204 177.978 204 174V159H294V174C294 177.978 295.58 181.794 298.393 184.607C301.206 187.42 305.022 189 309 189C312.978 189 316.794 187.42 319.607 184.607C322.42 181.794 324 177.978 324 174V159H354C357.978 159 361.794 160.58 364.607 163.393C367.42 166.206 369 170.022 369 174V219Z" fill="white"/>
<defs>
<linearGradient id="paint0_linear_540_3" x1="43" y1="46" x2="452" y2="450.5" gradientUnits="userSpaceOnUse">
<stop stop-color="#0FA9D7"/>
<stop offset="1" stop-color="#10B68E"/>
</linearGradient>
</defs>
</svg>
